<?xml version="1.0" encoding="UTF-8" standalone="no"?>
<!DOCTYPE svg PUBLIC "-//W3C//DTD SVG 1.1//EN"
 "http://www.w3.org/Graphics/SVG/1.1/DTD/svg11.dtd">
<!-- Generated by graphviz version 2.40.1 (20161225.0304)
 -->
<!-- Title: dependencies Pages: 1 -->
<svg width="566pt" height="284pt"
 viewBox="0.00 0.00 566.00 284.00" xmlns="http://www.w3.org/2000/svg" xmlns:xlink="http://www.w3.org/1999/xlink">
<g id="graph0" class="graph" transform="scale(1 1) rotate(0) translate(4 280)">
<title>dependencies</title>
<polygon fill="#ffffff" stroke="transparent" points="-4,4 -4,-280 562,-280 562,4 -4,4"/>
<text text-anchor="start" x="258.0091" y="-42.4" font-family="sans-serif" font-weight="bold" font-size="14.00" fill="#000000">Legend</text>
<polygon fill="#ffffb3" stroke="transparent" points="45,-10 45,-30 65,-30 65,-10 45,-10"/>
<text text-anchor="start" x="68.629" y="-15.4" font-family="sans-serif" font-size="14.00" fill="#000000"> &#160;Declarations</text>
<polygon fill="#8dd3c7" stroke="transparent" points="158,-10 158,-30 178,-30 178,-10 158,-10"/>
<text text-anchor="start" x="181.7251" y="-15.4" font-family="sans-serif" font-size="14.00" fill="#000000"> &#160;Module</text>
<polygon fill="#80b1d3" stroke="transparent" points="244,-10 244,-30 264,-30 264,-10 244,-10"/>
<text text-anchor="start" x="267.7812" y="-15.4" font-family="sans-serif" font-size="14.00" fill="#000000"> &#160;Bootstrap</text>
<polygon fill="#fdb462" stroke="transparent" points="341,-10 341,-30 361,-30 361,-10 341,-10"/>
<text text-anchor="start" x="364.6732" y="-15.4" font-family="sans-serif" font-size="14.00" fill="#000000"> &#160;Providers</text>
<polygon fill="#fb8072" stroke="transparent" points="437,-10 437,-30 457,-30 457,-10 437,-10"/>
<text text-anchor="start" x="460.7258" y="-15.4" font-family="sans-serif" font-size="14.00" fill="#000000"> &#160;Exports</text>
<g id="clust1" class="cluster">
<title>cluster_TerraInteractModule</title>
<polygon fill="none" stroke="#000000" stroke-dasharray="1,5" points="8,-70 8,-268 550,-268 550,-70 8,-70"/>
</g>
<g id="clust2" class="cluster">
<title>cluster_TerraInteractModule_declarations</title>
<polygon fill="none" stroke="#000000" points="22,-78 22,-130 536,-130 536,-78 22,-78"/>
</g>
<g id="clust7" class="cluster">
<title>cluster_TerraInteractModule_exports</title>
<polygon fill="none" stroke="#000000" points="16,-208 16,-260 542,-260 542,-208 16,-208"/>
</g>
<!-- TerraDraggableDirective -->
<g id="node1" class="node">
<title>TerraDraggableDirective</title>
<polygon fill="#ffffb3" stroke="#000000" points="528.1877,-122 371.8123,-122 371.8123,-86 528.1877,-86 528.1877,-122"/>
<text text-anchor="middle" x="450" y="-99.8" font-family="Times,serif" font-size="14.00" fill="#000000">TerraDraggableDirective</text>
</g>
<!-- TerraInteractModule -->
<g id="node4" class="node">
<title>TerraInteractModule</title>
<polygon fill="#8dd3c7" stroke="#000000" points="343.0996,-187 340.0996,-191 319.0996,-191 316.0996,-187 210.9004,-187 210.9004,-151 343.0996,-151 343.0996,-187"/>
<text text-anchor="middle" x="277" y="-164.8" font-family="Times,serif" font-size="14.00" fill="#000000">TerraInteractModule</text>
</g>
<!-- TerraDraggableDirective&#45;&gt;TerraInteractModule -->
<g id="edge1" class="edge">
<title>TerraDraggableDirective&#45;&gt;TerraInteractModule</title>
<path fill="none" stroke="#000000" d="M476.8646,-122.0225C476.8646,-139.3734 476.8646,-163 476.8646,-163 476.8646,-163 353.2744,-163 353.2744,-163"/>
<polygon fill="#000000" stroke="#000000" points="353.2744,-159.5001 343.2744,-163 353.2744,-166.5001 353.2744,-159.5001"/>
</g>
<!-- TerraDropzoneDirective -->
<g id="node2" class="node">
<title>TerraDropzoneDirective</title>
<polygon fill="#ffffb3" stroke="#000000" points="353.5828,-122 200.4172,-122 200.4172,-86 353.5828,-86 353.5828,-122"/>
<text text-anchor="middle" x="277" y="-99.8" font-family="Times,serif" font-size="14.00" fill="#000000">TerraDropzoneDirective</text>
</g>
<!-- TerraDropzoneDirective&#45;&gt;TerraInteractModule -->
<g id="edge2" class="edge">
<title>TerraDropzoneDirective&#45;&gt;TerraInteractModule</title>
<path fill="none" stroke="#000000" d="M277,-122.1061C277,-122.1061 277,-140.991 277,-140.991"/>
<polygon fill="#000000" stroke="#000000" points="273.5001,-140.9909 277,-150.991 280.5001,-140.991 273.5001,-140.9909"/>
</g>
<!-- TerraResizableDirective -->
<g id="node3" class="node">
<title>TerraResizableDirective</title>
<polygon fill="#ffffb3" stroke="#000000" points="182.3067,-122 29.6933,-122 29.6933,-86 182.3067,-86 182.3067,-122"/>
<text text-anchor="middle" x="106" y="-99.8" font-family="Times,serif" font-size="14.00" fill="#000000">TerraResizableDirective</text>
</g>
<!-- TerraResizableDirective&#45;&gt;TerraInteractModule -->
<g id="edge3" class="edge">
<title>TerraResizableDirective&#45;&gt;TerraInteractModule</title>
<path fill="none" stroke="#000000" d="M129.9678,-122.0225C129.9678,-139.3734 129.9678,-163 129.9678,-163 129.9678,-163 200.796,-163 200.796,-163"/>
<polygon fill="#000000" stroke="#000000" points="200.796,-166.5001 210.796,-163 200.796,-159.5001 200.796,-166.5001"/>
</g>
<!-- TerraDraggableDirective  -->
<g id="node5" class="node">
<title>TerraDraggableDirective </title>
<polygon fill="#fb8072" stroke="#000000" points="534.1875,-252 373.8125,-252 373.8125,-216 534.1875,-216 534.1875,-252"/>
<text text-anchor="middle" x="454" y="-229.8" font-family="Times,serif" font-size="14.00" fill="#000000">TerraDraggableDirective </text>
</g>
<!-- TerraInteractModule&#45;&gt;TerraDraggableDirective  -->
<g id="edge4" class="edge">
<title>TerraInteractModule&#45;&gt;TerraDraggableDirective </title>
<path fill="none" stroke="#000000" stroke-dasharray="5,2" d="M343.3806,-175C382.889,-175 425.3854,-175 425.3854,-175 425.3854,-175 425.3854,-205.9775 425.3854,-205.9775"/>
<polygon fill="#000000" stroke="#000000" points="421.8855,-205.9774 425.3854,-215.9775 428.8855,-205.9775 421.8855,-205.9774"/>
</g>
<!-- TerraDropzoneDirective  -->
<g id="node6" class="node">
<title>TerraDropzoneDirective </title>
<polygon fill="#fb8072" stroke="#000000" points="355.5822,-252 198.4178,-252 198.4178,-216 355.5822,-216 355.5822,-252"/>
<text text-anchor="middle" x="277" y="-229.8" font-family="Times,serif" font-size="14.00" fill="#000000">TerraDropzoneDirective </text>
</g>
<!-- TerraInteractModule&#45;&gt;TerraDropzoneDirective  -->
<g id="edge5" class="edge">
<title>TerraInteractModule&#45;&gt;TerraDropzoneDirective </title>
<path fill="none" stroke="#000000" stroke-dasharray="5,2" d="M277,-187.1061C277,-187.1061 277,-205.991 277,-205.991"/>
<polygon fill="#000000" stroke="#000000" points="273.5001,-205.9909 277,-215.991 280.5001,-205.991 273.5001,-205.9909"/>
</g>
<!-- TerraResizableDirective  -->
<g id="node7" class="node">
<title>TerraResizableDirective </title>
<polygon fill="#fb8072" stroke="#000000" points="180.3069,-252 23.6931,-252 23.6931,-216 180.3069,-216 180.3069,-252"/>
<text text-anchor="middle" x="102" y="-229.8" font-family="Times,serif" font-size="14.00" fill="#000000">TerraResizableDirective </text>
</g>
<!-- TerraInteractModule&#45;&gt;TerraResizableDirective  -->
<g id="edge6" class="edge">
<title>TerraInteractModule&#45;&gt;TerraResizableDirective </title>
<path fill="none" stroke="#000000" stroke-dasharray="5,2" d="M210.7807,-175C153.4869,-175 79.7822,-175 79.7822,-175 79.7822,-175 79.7822,-205.9775 79.7822,-205.9775"/>
<polygon fill="#000000" stroke="#000000" points="76.2823,-205.9774 79.7822,-215.9775 83.2823,-205.9775 76.2823,-205.9774"/>
</g>
</g>
</svg>
